<svg id="Layer_1" data-name="Layer 1" xmlns="http://www.w3.org/2000/svg" xmlns:xlink="http://www.w3.org/1999/xlink" viewBox="0 0 194 177"><defs><style>.cls-1{fill:#fff;}.cls-2,.cls-4{fill:#fbb03b;}.cls-3{fill:url(#linear-gradient);}.cls-4{font-size:19px;font-family:PlantagenetCherokee, Plantagenet Cherokee;}.cls-4,.cls-7{letter-spacing:0.06em;}.cls-5{letter-spacing:0.06em;}.cls-6{letter-spacing:-0.02em;}</style><linearGradient id="linear-gradient" x1="96.5" y1="14.49" x2="97.52" y2="165.51" gradientUnits="userSpaceOnUse"><stop offset="0" stop-color="#f2f2f2"/><stop offset="0.26" stop-color="#1545ff"/><stop offset="1" stop-color="#1b14aa"/></linearGradient></defs><title>CMI_fake</title><ellipse class="cls-1" cx="97" cy="88.5" rx="92" ry="83.5"/><path class="cls-2" d="M99,21c48,0,87,35.21,87,78.5S147,178,99,178,12,142.79,12,99.5,51,21,99,21m0-10C45.43,11,2,50.62,2,99.5S45.43,188,99,188s97-39.62,97-88.5S152.57,11,99,11Z" transform="translate(-2 -11)"/><ellipse class="cls-3" cx="97" cy="89" rx="87" ry="79"/><text class="cls-4" transform="translate(56.13 67.83)">Certified <tspan class="cls-5"><tspan x="0.45" y="22.8">M</tspan><tspan class="cls-6" x="18.78" y="22.8">A</tspan><tspan class="cls-7" x="32.39" y="22.8">STER </tspan><tspan x="-13.56" y="45.6">INSPECTOR</tspan></tspan></text></svg>